<svg width="285" height="74" viewBox="0 0 285 74" fill="none" xmlns="http://www.w3.org/2000/svg">
<path d="M36 51.1918C36 55.9505 39.8056 59.8082 44.5 59.8082C49.1944 59.8082 53 55.9505 53 51.1918C53 46.4331 49.1944 42.5753 44.5 42.5753C39.8056 42.5753 36 46.4331 36 51.1918Z" fill="white"/>
<path d="M285 26.863C285 12.027 273.136 0 258.5 0H26.5C11.8645 0 0 12.027 0 26.863C0 41.699 11.8645 53.726 26.5 53.726H258.5C273.136 53.726 285 41.699 285 26.863Z" fill="white"/>
<path d="M20 69.4384C20 71.9577 22.0147 74 24.5 74C26.9853 74 29 71.9577 29 69.4384C29 66.919 26.9853 64.8767 24.5 64.8767C22.0147 64.8767 20 66.919 20 69.4384Z" fill="white"/>
</svg>
