<svg width="11" height="17" viewBox="0 0 11 17" fill="none" xmlns="http://www.w3.org/2000/svg">
<path d="M10.1161 9.59809L0.973214 0.455235C0.866071 0.339163 0.723214 0.285591 0.571429 0.285591C0.5 0.285591 0.419643 0.303449 0.357143 0.330235C0.142857 0.41952 0 0.624877 0 0.85702V14.2856C0 14.5177 0.142857 14.7231 0.357143 14.8124C0.419643 14.8392 0.5 14.857 0.571429 14.857C0.723214 14.857 0.866071 14.7945 0.973214 14.6874L3.75893 11.9017L5.46429 15.9374C5.58929 16.2231 5.91964 16.3659 6.21429 16.2409L7.79464 15.5713C8.08036 15.4463 8.22322 15.1159 8.09822 14.8213L6.30357 10.5713H9.71429C9.94643 10.5713 10.1518 10.4284 10.2411 10.2142C10.3304 10.0088 10.2857 9.75881 10.1161 9.59809Z" fill="white"/>
</svg>
