<svg width="18" height="14" viewBox="0 0 18 14" fill="none" xmlns="http://www.w3.org/2000/svg">
<path d="M9.48214 5.64273L10.6518 6.18738L12.3929 5.66952V4.45523C12.3929 2.39273 10.6518 0.740949 8.57143 0.740949C6.5 0.740949 4.75 2.38381 4.75 4.42845V9.96416C4.75 10.4731 4.33929 10.8749 3.83929 10.8749C3.33929 10.8749 2.92857 10.4731 2.92857 9.96416V7.62488H0C0 9.97309 0 9.99988 0 9.99988C0 12.1159 1.71429 13.8302 3.83036 13.8302C5.92857 13.8302 7.66071 12.1427 7.66071 10.0534V4.58916C7.66071 4.08916 8.07143 3.67845 8.57143 3.67845C9.07143 3.67845 9.48214 4.08916 9.48214 4.58916V5.64273ZM14.2143 7.62488V10.0802C14.2143 10.5802 13.8036 10.982 13.3036 10.982C12.8036 10.982 12.3929 10.5802 12.3929 10.0802V7.66952L10.6518 8.18738L9.48214 7.64274V10.0356C9.48214 12.1338 11.2054 13.8302 13.3125 13.8302C15.4286 13.8302 17.1429 12.1159 17.1429 9.99988C17.1429 9.99988 17.1429 9.97309 17.1429 7.62488H14.2143Z" fill="white"/>
</svg>
